<?xml version="1.0" encoding="UTF-8" standalone="no"?>
<!-- Created with Inkscape (http://www.inkscape.org/) -->

<svg
   width="210mm"
   height="210	mm"
   viewBox="0 0 210 210"
   version="1.1"
   id="svg1"
   xml:space="preserve"
   xmlns:xlink="http://www.w3.org/1999/xlink"
   xmlns="http://www.w3.org/2000/svg"
   xmlns:svg="http://www.w3.org/2000/svg"><defs
     id="defs1"><linearGradient
       id="swatch1"><stop
         style="stop-color:#000000;stop-opacity:1;"
         offset="0"
         id="stop1" /></linearGradient><linearGradient
       xlink:href="#swatch1"
       id="linearGradient1"
       x1="2.9379563"
       y1="52.809959"
       x2="82.551399"
       y2="52.809959"
       gradientUnits="userSpaceOnUse" /><linearGradient
       xlink:href="#swatch1"
       id="linearGradient14"
       gradientUnits="userSpaceOnUse"
       x1="2.9379563"
       y1="52.809959"
       x2="82.551399"
       y2="52.809959" /><linearGradient
       xlink:href="#swatch1"
       id="linearGradient15"
       gradientUnits="userSpaceOnUse"
       x1="2.9379563"
       y1="52.809959"
       x2="82.551399"
       y2="52.809959" /><linearGradient
       xlink:href="#swatch1"
       id="linearGradient16"
       gradientUnits="userSpaceOnUse"
       x1="2.9379563"
       y1="52.809959"
       x2="82.551399"
       y2="52.809959" /><linearGradient
       xlink:href="#swatch1"
       id="linearGradient17"
       gradientUnits="userSpaceOnUse"
       x1="2.9379563"
       y1="52.809959"
       x2="82.551399"
       y2="52.809959" /><linearGradient
       xlink:href="#swatch1"
       id="linearGradient18"
       gradientUnits="userSpaceOnUse"
       x1="2.9379563"
       y1="52.809959"
       x2="82.551399"
       y2="52.809959" /><linearGradient
       xlink:href="#swatch1"
       id="linearGradient19"
       gradientUnits="userSpaceOnUse"
       x1="2.9379563"
       y1="52.809959"
       x2="82.551399"
       y2="52.809959" /><linearGradient
       xlink:href="#swatch1"
       id="linearGradient20"
       gradientUnits="userSpaceOnUse"
       x1="2.9379563"
       y1="52.809959"
       x2="82.551399"
       y2="52.809959" /><linearGradient
       xlink:href="#swatch1"
       id="linearGradient21"
       gradientUnits="userSpaceOnUse"
       x1="2.9379563"
       y1="52.809959"
       x2="82.551399"
       y2="52.809959" /><linearGradient
       xlink:href="#swatch1"
       id="linearGradient22"
       gradientUnits="userSpaceOnUse"
       x1="2.9379563"
       y1="52.809959"
       x2="82.551399"
       y2="52.809959" /><linearGradient
       xlink:href="#swatch1"
       id="linearGradient23"
       gradientUnits="userSpaceOnUse"
       x1="2.9379563"
       y1="52.809959"
       x2="82.551399"
       y2="52.809959" /><linearGradient
       xlink:href="#swatch1"
       id="linearGradient24"
       gradientUnits="userSpaceOnUse"
       x1="2.9379563"
       y1="52.809959"
       x2="82.551399"
       y2="52.809959" /><linearGradient
       xlink:href="#swatch1"
       id="linearGradient25"
       gradientUnits="userSpaceOnUse"
       x1="2.9379563"
       y1="52.809959"
       x2="82.551399"
       y2="52.809959" /><linearGradient
       xlink:href="#swatch1"
       id="linearGradient26"
       gradientUnits="userSpaceOnUse"
       x1="2.9379563"
       y1="52.809959"
       x2="82.551399"
       y2="52.809959" /><linearGradient
       xlink:href="#swatch1"
       id="linearGradient27"
       gradientUnits="userSpaceOnUse"
       x1="2.9379563"
       y1="52.809959"
       x2="82.551399"
       y2="52.809959" /><linearGradient
       xlink:href="#swatch1"
       id="linearGradient28"
       gradientUnits="userSpaceOnUse"
       x1="2.9379563"
       y1="52.809959"
       x2="82.551399"
       y2="52.809959" /><linearGradient
       xlink:href="#swatch1"
       id="linearGradient29"
       gradientUnits="userSpaceOnUse"
       x1="2.9379563"
       y1="52.809959"
       x2="82.551399"
       y2="52.809959" /><linearGradient
       xlink:href="#swatch1"
       id="linearGradient30"
       gradientUnits="userSpaceOnUse"
       x1="2.9379563"
       y1="52.809959"
       x2="82.551399"
       y2="52.809959" /><linearGradient
       xlink:href="#swatch1"
       id="linearGradient31"
       gradientUnits="userSpaceOnUse"
       x1="2.9379563"
       y1="52.809959"
       x2="82.551399"
       y2="52.809959" /><linearGradient
       xlink:href="#swatch1"
       id="linearGradient32"
       gradientUnits="userSpaceOnUse"
       x1="2.9379563"
       y1="52.809959"
       x2="82.551399"
       y2="52.809959" /><linearGradient
       xlink:href="#swatch1"
       id="linearGradient33"
       gradientUnits="userSpaceOnUse"
       x1="2.9379563"
       y1="52.809959"
       x2="82.551399"
       y2="52.809959" /></defs><g
     id="layer1"><g
       id="g3293"
       transform="matrix(0.94623305,0,0,0.91804222,61.716126,109.33057)"
       style="stroke:url(#linearGradient1)"><g
         id="g3249"
         style="stroke:url(#linearGradient24)"><g
           id="g3244"
           style="stroke:url(#linearGradient17)"><rect
             id="rect2451"
             style="fill:none;stroke:url(#linearGradient14);stroke-linecap:round;stroke-linejoin:round"
             ry="0.12188"
             height="32.981998"
             width="7.1698999"
             y="68.142998"
             x="39.405998" /><rect
             id="rect3223"
             style="fill:none;stroke:url(#linearGradient15);stroke-linecap:round;stroke-linejoin:round"
             ry="0.12188"
             height="20.190001"
             width="5.908"
             y="48.124001"
             x="40.036999" /><rect
             id="rect3225"
             style="fill:none;stroke:url(#linearGradient16);stroke-linecap:round;stroke-linejoin:round"
             ry="0.12188"
             height="17.667"
             width="3.8431001"
             y="30.458"
             x="41.069" /></g><g
           id="g3237"
           style="stroke:url(#linearGradient23)"><rect
             id="rect3227"
             style="fill:none;stroke:url(#linearGradient18);stroke-width:1.0065;stroke-linecap:round;stroke-linejoin:round"
             ry="0.1236"
             height="22.105"
             width="6.0735998"
             y="8.7505999"
             x="39.953999" /><rect
             id="rect3229"
             style="fill:none;stroke:url(#linearGradient19);stroke-width:0.97894;stroke-linecap:round;stroke-linejoin:round"
             ry="0.11631"
             height="22.334"
             width="5.0686998"
             y="8.7081003"
             x="31.308001" /><rect
             id="rect3231"
             style="fill:none;stroke:url(#linearGradient20);stroke-width:0.97556;stroke-linecap:round;stroke-linejoin:round"
             ry="0.11543"
             height="22.165001"
             width="5.0721002"
             y="8.7063999"
             x="49.764999" /><rect
             id="rect3233"
             style="fill:none;stroke:url(#linearGradient21);stroke-linecap:round;stroke-linejoin:round"
             ry="0.11543"
             height="3.2447"
             width="3.2447"
             y="18.311001"
             x="36.341" /><rect
             id="rect3235"
             style="fill:none;stroke:url(#linearGradient22);stroke-linecap:round;stroke-linejoin:round"
             ry="0.11543"
             height="3.2447"
             width="3.2447"
             y="18.311001"
             x="46.341" /></g></g><g
         id="g3283"
         style="stroke:url(#linearGradient33)"><g
           id="g3278"
           style="stroke:url(#linearGradient28)"><path
             id="path3261"
             style="fill:none;stroke:url(#linearGradient25);stroke-width:1px"
             d="m 23.443,13.241 c -3.651,4.98 -3.89,9.486 0.244,13.385" /><path
             id="path3263"
             style="fill:none;stroke:url(#linearGradient26);stroke-width:1px"
             d="m 16.548,8.4552 c -5.464,7.5078 -7.2843,15.14 -0.04,23.078" /><path
             id="path3265"
             style="fill:none;stroke:url(#linearGradient27);stroke-width:1px"
             d="M 9.572,4.2776 C 2.9596,13.925 -0.0053,24.2036 9.4908,36.6436" /></g><g
           id="g3273"
           style="stroke:url(#linearGradient32)"><path
             id="path3267"
             style="fill:none;stroke:url(#linearGradient29);stroke-width:1px"
             d="m 62.542,13.363 c 2.117,4.353 3.485,8.707 -0.162,13.06" /><path
             id="path3269"
             style="fill:none;stroke:url(#linearGradient30);stroke-width:1px"
             d="m 68.464,8.5769 c 6.184,7.9181 7.499,15.605 0.081,22.875" /><path
             id="path3271"
             style="fill:none;stroke:url(#linearGradient31);stroke-width:1px"
             d="m 75.683,4.4399 c 8.494,10.411 8.569,20.927 -0.243,31.555" /></g></g></g><path
       style="fill:none;stroke-width:0.502166"
       d="m 92.270882,127.57483 v -9.64526 h 1.529453 1.529453 v 9.64526 9.64526 h -1.529453 -1.529453 z"
       id="path1" /><path
       style="fill:none;stroke-width:0.502166"
       d="m 92.270882,127.57483 v -9.64526 h 1.529453 1.529453 v 9.64526 9.64526 h -1.529453 -1.529453 z"
       id="path2" /><path
       style="fill:none;stroke-width:0.502166"
       d="m 92.270882,127.57483 v -9.64526 h 1.529453 1.529453 v 9.64526 9.64526 h -1.529453 -1.529453 z"
       id="path3" /><path
       style="fill:none;stroke-width:0.502166"
       d="m 92.270882,127.57483 v -9.64526 h 1.529453 1.529453 v 9.64526 9.64526 h -1.529453 -1.529453 z"
       id="path4" /><path
       style="fill:#d9dbf1;fill-opacity:1;stroke-width:0.502166"
       d="m 92.270882,127.57483 v -9.64526 h 1.529453 1.529453 v 9.64526 9.64526 h -1.529453 -1.529453 z"
       id="path5" /><path
       style="fill:#d9dbf1;fill-opacity:1;stroke-width:0.502166"
       d="m 100.42796,127.32751 v -9.39794 h 2.03928 2.03927 v 9.39794 9.39795 h -2.03927 -2.03928 z"
       id="path6" /><path
       style="fill:#d9dbf1;fill-opacity:1;stroke-width:0.502166"
       d="m 109.60468,127.57483 v -9.64526 h 1.52945 1.52946 v 9.64526 9.64526 h -1.52946 -1.52945 z"
       id="path7" /><path
       style="fill:#f9f9ed;fill-opacity:1;stroke-width:0.502166"
       d="m 100.42796,162.69347 v -8.656 h 2.03928 2.03927 v 8.656 8.656 h -2.03927 -2.03928 z"
       id="path8" /><path
       style="fill:#f9f9ed;fill-opacity:1;stroke-width:0.502166"
       d="m 103.69207,145.62878 c 0,-4.21671 0.0782,-5.94173 0.17375,-3.83338 0.0956,2.10836 0.0956,5.5584 0,7.66675 -0.0956,2.10835 -0.17375,0.38334 -0.17375,-3.83337 z"
       id="path9" /><path
       style="fill:#f9f9ed;fill-opacity:1;stroke-width:0.502166"
       d="m 99.918147,187.17759 v -14.34423 h 2.549093 2.54908 v 14.34423 14.34424 h -2.54908 -2.549093 z"
       id="path10" /><path
       style="fill:#f9f9ed;fill-opacity:1;stroke-width:0.502166"
       d="m 101.4476,145.62878 c 0,-7.08968 0.0453,-7.41943 1.01964,-7.41943 0.97431,0 1.01963,0.32975 1.01963,7.41943 0,7.08968 -0.0453,7.41943 -1.01963,7.41943 -0.97432,0 -1.01964,-0.32975 -1.01964,-7.41943 z"
       id="path12" /><path
       style="fill:#f9f9ed;fill-opacity:1;stroke-width:0.502166"
       d="m 106.54578,127.57483 c 0,-0.40807 0.34412,-0.74195 0.76472,-0.74195 0.4206,0 0.76473,0.33388 0.76473,0.74195 0,0.40807 -0.34413,0.74194 -0.76473,0.74194 -0.4206,0 -0.76472,-0.33387 -0.76472,-0.74194 z"
       id="path13" /><path
       style="fill:#f9f9ed;fill-opacity:1;stroke-width:0.502166"
       d="m 98.428943,127.53361 c 0.02446,-0.57621 0.145267,-0.69342 0.308014,-0.29884 0.147271,0.35706 0.129159,0.78368 -0.04025,0.94804 -0.169407,0.16436 -0.289902,-0.12778 -0.267764,-0.6492 z"
       id="path14" /></g></svg>
