<?xml version="1.0" encoding="utf-8"?>
<!-- Generator: Adobe Illustrator 28.2.0, SVG Export Plug-In . SVG Version: 6.00 Build 0)  -->
<svg version="1.1"
	 id="svg5" xmlns:inkscape="http://www.inkscape.org/namespaces/inkscape" xmlns:svg="http://www.w3.org/2000/svg" xmlns:sodipodi="http://sodipodi.sourceforge.net/DTD/sodipodi-0.dtd" inkscape:version="1.1.2 (0a00cf5339, 2022-02-04)"
	 xmlns="http://www.w3.org/2000/svg" xmlns:xlink="http://www.w3.org/1999/xlink" x="0px" y="0px" viewBox="0 0 425.2 340.2"
	 style="enable-background:new 0 0 425.2 340.2;" xml:space="preserve">
<style type="text/css">
	.st0{fill:#C5C7D9;}
	.st1{fill:#8E9DCC;}
	.st2{enable-background:new    ;}
	.st3{fill:#FFFFFF;}
	.st4{fill:#B3D676;}
	.st5{fill:none;}
</style>
<sodipodi:namedview  bordercolor="#111111" borderopacity="1" id="namedview7" inkscape:current-layer="layer1" inkscape:cx="241.95391" inkscape:cy="274.35634" inkscape:document-units="mm" inkscape:pagecheckerboard="1" inkscape:pageopacity="0" inkscape:pageshadow="0" inkscape:window-height="1011" inkscape:window-maximized="1" inkscape:window-width="1920" inkscape:window-x="0" inkscape:window-y="32" inkscape:zoom="2.114039" pagecolor="#ffffff" showgrid="false">
	</sodipodi:namedview>
<g id="layer1" inkscape:groupmode="layer" inkscape:label="Layer 1">
	<g id="g8552">
		<path id="rect7941" class="st0" d="M107.4,138.5l6,3.4c1.2,0.7,1.6,2.2,1,3.4l-67,126.3c-0.6,1.2-2.1,1.6-3.3,0.9l-6-3.4
			c-1.2-0.7-1.6-2.2-1-3.4l67-126.3C104.7,138.2,106.2,137.8,107.4,138.5z"/>
		<path id="rect7941-5" class="st0" d="M227.8,27.9l4.4,5.3c0.9,1,0.8,2.6-0.2,3.5l-106,96c-1,0.9-2.5,0.8-3.4-0.2l-4.4-5.3
			c-0.9-1-0.8-2.6,0.2-3.5l106-96C225.4,26.8,226.9,26.9,227.8,27.9z"/>
		<path id="rect7941-9" class="st0" d="M117.5,141.8l6.7-2.6c1.1-0.4,2.5,0.1,3.1,1.1l63,110.4c0.6,1,0.2,2.2-1,2.7l-6.7,2.6
			c-1.1,0.4-2.5-0.1-3.1-1.1l-63-110.4C115.9,143.4,116.4,142.2,117.5,141.8z"/>
		<path id="rect7941-9-5" class="st0" d="M218.5,49.7l5.8-4.2c1-0.7,2.5-0.6,3.3,0.3l88.8,90.9c0.8,0.9,0.7,2.1-0.2,2.8l-5.8,4.2
			c-1,0.7-2.5,0.6-3.3-0.3l-88.8-90.9C217.5,51.7,217.6,50.4,218.5,49.7z"/>
		<path id="rect7941-9-3" class="st0" d="M311,144.6l7.3-1.2c1.3-0.2,2.7,0.6,3.1,1.9l41,133.2c0.4,1.3-0.4,2.5-1.7,2.7l-7.3,1.2
			c-1.3,0.2-2.7-0.6-3.1-1.9l-41-133.2C309,146,309.7,144.8,311,144.6z"/>
	</g>
	<ellipse id="path5126-3" class="st1" cx="215.8" cy="44.3" rx="36.9" ry="36.6"/>
	<g>
		<g class="st2">
			<path class="st3" d="M209.8,56.6c-1.6,0.6-4.7,1.3-8,1.3c-4.2,0-7.4-1-9.7-3.2c-2.2-2.1-3.5-5.2-3.5-8.9
				c0-7.7,5.6-12.6,13.8-12.6c3,0,5.4,0.6,6.6,1.1l-1,3.6c-1.4-0.6-3-1-5.6-1c-5.3,0-9,3.1-9,8.7c0,5.5,3.5,8.8,8.6,8.8
				c1.6,0,2.8-0.2,3.4-0.5v-6H201v-3.5h8.8V56.6z"/>
			<path class="st3" d="M235.3,47.9c-0.2-3.1-0.3-6.9-0.3-10.2h-0.1c-0.8,3-1.9,6.2-2.9,9.3l-3.6,10.5h-3.5l-3.3-10.3
				c-1-3.1-1.9-6.4-2.5-9.4H219c-0.1,3.2-0.3,7-0.4,10.3l-0.6,9.7h-4.2l1.6-24.2h5.9l3.2,9.7c0.9,2.9,1.7,5.7,2.3,8.4h0.1
				c0.7-2.6,1.5-5.6,2.5-8.5l3.4-9.7h5.9l1.4,24.2h-4.4L235.3,47.9z"/>
		</g>
	</g>
	<g>
		<ellipse id="path5126" class="st4" cx="115.4" cy="135.5" rx="26.8" ry="27.1"/>
		<g>
			<g class="st2">
				<path class="st3" d="M115.5,136.5c0,6.2-3.8,10-9.4,10c-5.7,0-9-4.2-9-9.6c0-5.7,3.7-9.9,9.3-9.9
					C112.3,127,115.5,131.3,115.5,136.5z M101.8,136.8c0,3.7,1.8,6.3,4.6,6.3c2.9,0,4.6-2.7,4.6-6.4c0-3.4-1.6-6.3-4.6-6.3
					C103.5,130.4,101.8,133.1,101.8,136.8z"/>
				<path class="st3" d="M132.4,145.7c-0.8,0.4-2.6,0.8-4.9,0.8c-6.6,0-10-4.1-10-9.5c0-6.5,4.7-10,10.4-10c2.2,0,3.9,0.4,4.7,0.8
					l-0.9,3.4c-0.9-0.4-2.1-0.7-3.6-0.7c-3.4,0-6.1,2.1-6.1,6.3c0,3.8,2.3,6.2,6.1,6.2c1.3,0,2.7-0.3,3.6-0.6L132.4,145.7z"/>
			</g>
		</g>
	</g>
	<g>
		
			<ellipse id="path5126_00000066509655921787553320000013039680409220045987_" class="st4" cx="314.1" cy="134.6" rx="26.8" ry="27.1"/>
		<g>
			<g class="st2">
				<path class="st3" d="M314.3,135.6c0,6.2-3.8,10-9.4,10c-5.7,0-9-4.2-9-9.6c0-5.7,3.7-9.9,9.3-9.9
					C311.1,126,314.3,130.4,314.3,135.6z M300.5,135.9c0,3.7,1.8,6.3,4.6,6.3c2.9,0,4.6-2.7,4.6-6.4c0-3.4-1.6-6.3-4.6-6.3
					C302.2,129.5,300.5,132.2,300.5,135.9z"/>
				<path class="st3" d="M331.1,144.8c-0.8,0.4-2.6,0.8-4.9,0.8c-6.6,0-10-4.1-10-9.5c0-6.5,4.7-10,10.4-10c2.2,0,3.9,0.4,4.7,0.8
					l-0.9,3.4c-0.9-0.4-2.1-0.7-3.6-0.7c-3.4,0-6.1,2.1-6.1,6.3c0,3.8,2.3,6.2,6.1,6.2c1.3,0,2.7-0.3,3.6-0.6L331.1,144.8z"/>
			</g>
		</g>
	</g>
	<g>
		
			<ellipse id="path5126_00000107564320168746354740000018169232200372799412_" class="st4" cx="184.4" cy="256.2" rx="26.8" ry="27.1"/>
		<g>
			<g class="st2">
				<path class="st3" d="M184.6,257.2c0,6.2-3.8,10-9.4,10c-5.7,0-9-4.2-9-9.6c0-5.7,3.7-9.9,9.3-9.9
					C181.4,247.6,184.6,251.9,184.6,257.2z M170.8,257.4c0,3.7,1.8,6.3,4.6,6.3c2.9,0,4.6-2.7,4.6-6.4c0-3.4-1.6-6.3-4.6-6.3
					C172.5,251,170.8,253.7,170.8,257.4z"/>
				<path class="st3" d="M201.4,266.3c-0.8,0.4-2.6,0.8-4.9,0.8c-6.6,0-10-4.1-10-9.5c0-6.5,4.7-10,10.4-10c2.2,0,3.9,0.4,4.7,0.8
					l-0.9,3.4c-0.9-0.4-2.1-0.7-3.6-0.7c-3.4,0-6.1,2.1-6.1,6.3c0,3.8,2.3,6.2,6.1,6.2c1.3,0,2.7-0.3,3.6-0.6L201.4,266.3z"/>
			</g>
		</g>
	</g>
	<g>
		
			<ellipse id="path5126_00000110455506486119520740000004364748775653451170_" class="st4" cx="48.9" cy="259" rx="26.8" ry="27.1"/>
		<g>
			<g class="st2">
				<path class="st3" d="M49,260c0,6.2-3.8,10-9.4,10c-5.7,0-9-4.2-9-9.6c0-5.7,3.7-9.9,9.3-9.9C45.8,250.4,49,254.8,49,260z
					 M35.2,260.3c0,3.7,1.8,6.3,4.6,6.3c2.9,0,4.6-2.7,4.6-6.4c0-3.4-1.6-6.3-4.6-6.3C36.9,253.8,35.2,256.6,35.2,260.3z"/>
				<path class="st3" d="M65.8,269.2c-0.8,0.4-2.6,0.8-4.9,0.8c-6.6,0-10-4.1-10-9.5c0-6.5,4.7-10,10.4-10c2.2,0,3.9,0.4,4.7,0.8
					l-0.9,3.4c-0.9-0.4-2.1-0.7-3.6-0.7c-3.4,0-6.1,2.1-6.1,6.3c0,3.8,2.3,6.2,6.1,6.2c1.3,0,2.7-0.3,3.6-0.6L65.8,269.2z"/>
			</g>
		</g>
	</g>
	<g>
		
			<ellipse id="path5126_00000083807424298881489990000015607824287683223946_" class="st4" cx="352.9" cy="259" rx="26.8" ry="27.1"/>
		<g>
			<g class="st2">
				<path class="st3" d="M353.1,260c0,6.2-3.8,10-9.4,10c-5.7,0-9-4.2-9-9.6c0-5.7,3.7-9.9,9.3-9.9
					C349.9,250.4,353.1,254.8,353.1,260z M339.3,260.3c0,3.7,1.8,6.3,4.6,6.3c2.9,0,4.6-2.7,4.6-6.4c0-3.4-1.6-6.3-4.6-6.3
					C341,253.8,339.3,256.6,339.3,260.3z"/>
				<path class="st3" d="M369.9,269.2c-0.8,0.4-2.6,0.8-4.9,0.8c-6.6,0-10-4.1-10-9.5c0-6.5,4.7-10,10.4-10c2.2,0,3.9,0.4,4.7,0.8
					l-0.9,3.4c-0.9-0.4-2.1-0.7-3.6-0.7c-3.4,0-6.1,2.1-6.1,6.3c0,3.8,2.3,6.2,6.1,6.2c1.3,0,2.7-0.3,3.6-0.6L369.9,269.2z"/>
			</g>
		</g>
	</g>
</g>
<rect x="222" y="24.9" class="st5" width="58.9" height="6"/>
</svg>
